# xmcd
#
# Track frame offsets:
#	150
#	43378
#	59595
#	75860
#	106555
#	123098
#	159995
#	179893
#	202813
#	215771
#	242848
#
# Disc length: 3688 seconds
#
# Revision: 0
# Processed by: cddbd v1.5.1PL0 Copyright (c) Steve Scherf et al.
# Submitted via: EasyCDDAExtractor 7.5.2.1
#
DISCID=920e660b
DTITLE=Eric Clapton - Royal Albert Hall, 2/19/95 [CD2]
DYEAR=1995
DGENRE=Bootleg
TTITLE0=Early In The Morning
TTITLE1=Someday After A While
TTITLE2=Tore Down
TTITLE3=Have You Ever Loved A Woman
TTITLE4=Crosscut Saw
TTITLE5=Have You Ever Been Mistreated
TTITLE6=Got My Mojo Working
TTITLE7=Ain't Nobody's Business
TTITLE8=Can't Judge Nobody
TTITLE9=Crossroads
TTITLE10=Worried Life Blues
EXTD=
EXTT0=
EXTT1=
EXTT2=
EXTT3=
EXTT4=
EXTT5=
EXTT6=
EXTT7=
EXTT8=
EXTT9=
EXTT10=
PLAYORDER=
